<?xml version="1.0" encoding="UTF-8"?>
<svg xmlns="http://www.w3.org/2000/svg" xmlns:xlink="http://www.w3.org/1999/xlink" width="750pt" height="749.999995pt" viewBox="0 0 750 749.999995" version="1.2">
<defs>
<clipPath id="clip1">
  <path d="M 300 246.105469 L 450 246.105469 L 450 397 L 300 397 Z M 300 246.105469 "/>
</clipPath>
<clipPath id="clip2">
  <path d="M 267.589844 344 L 482.089844 344 L 482.089844 504 L 267.589844 504 Z M 267.589844 344 "/>
</clipPath>
</defs>
<g id="surface1">
<g clip-path="url(#clip1)" clip-rule="nonzero">
<path style=" stroke:none;fill-rule:nonzero;fill:rgb(65.098572%,65.098572%,65.098572%);fill-opacity:1;" d="M 412.371094 283.058594 L 412.371094 359.621094 L 337.320312 359.621094 L 337.320312 283.058594 L 412.371094 283.058594 M 421.25 246.234375 L 328.429688 246.234375 C 313.039062 246.234375 300.601562 257.335938 300.601562 271.03125 L 300.601562 371.644531 C 300.601562 385.34375 313.042969 396.4375 328.421875 396.4375 L 421.242188 396.4375 C 436.609375 396.4375 449.085938 385.339844 449.085938 371.644531 L 449.085938 271.03125 C 449.097656 257.335938 436.613281 246.234375 421.25 246.234375 Z M 421.25 246.234375 "/>
</g>
<g clip-path="url(#clip2)" clip-rule="nonzero">
<path style=" stroke:none;fill-rule:nonzero;fill:rgb(65.098572%,65.098572%,65.098572%);fill-opacity:1;" d="M 267.589844 344.613281 L 267.589844 503.980469 L 482.089844 503.980469 L 482.089844 344.613281 Z M 387.882812 430.914062 L 387.882812 462.914062 L 361.03125 462.914062 L 361.03125 430.390625 C 357.148438 426.71875 354.640625 421.589844 354.640625 415.796875 C 354.640625 404.609375 363.6875 395.566406 374.855469 395.566406 C 385.988281 395.566406 395 404.609375 395 415.796875 C 395 421.890625 392.179688 427.203125 387.882812 430.914062 Z M 387.882812 430.914062 "/>
</g>
</g>
</svg>
