<?xml version="1.0" encoding="UTF-8"?>
<svg xmlns="http://www.w3.org/2000/svg" xmlns:xlink="http://www.w3.org/1999/xlink" width="750pt" height="749.999995pt" viewBox="0 0 750 749.999995" version="1.2">
<defs>
<clipPath id="clip1">
  <path d="M 296.105469 298 L 453.929688 298 L 453.929688 504.082031 L 296.105469 504.082031 Z M 296.105469 298 "/>
</clipPath>
<clipPath id="clip2">
  <path d="M 300 246.105469 L 416 246.105469 L 416 347 L 300 347 Z M 300 246.105469 "/>
</clipPath>
</defs>
<g id="surface1">
<g clip-path="url(#clip1)" clip-rule="nonzero">
<path style=" stroke:none;fill-rule:nonzero;fill:rgb(100%,100%,100%);fill-opacity:1;" d="M 445.757812 377.808594 C 443.300781 375.238281 439.847656 373.632812 436.015625 373.632812 C 429.414062 373.632812 423.929688 378.375 422.753906 384.628906 L 422.878906 384.628906 C 422.785156 385.160156 422.738281 385.710938 422.738281 386.277344 L 422.738281 374.96875 C 422.738281 374.519531 422.710938 374.074219 422.648438 373.632812 L 422.722656 373.632812 C 421.550781 367.378906 416.0625 362.648438 409.472656 362.648438 C 403.039062 362.648438 397.667969 367.144531 396.308594 373.160156 L 396.308594 359.058594 C 396.308594 358.699219 396.292969 358.339844 396.253906 357.996094 L 396.292969 357.996094 C 396.261719 357.804688 396.226562 357.621094 396.179688 357.441406 C 395.898438 355.683594 395.15625 354.082031 394.082031 352.75 C 391.648438 349.277344 387.609375 347.003906 383.039062 347.003906 C 378.46875 347.003906 374.433594 349.277344 371.992188 352.75 C 370.925781 354.082031 370.183594 355.683594 369.902344 357.441406 C 369.855469 357.621094 369.816406 357.804688 369.78125 357.996094 L 369.824219 357.996094 C 369.789062 358.339844 369.765625 358.699219 369.765625 359.058594 L 369.765625 310.964844 C 369.765625 310.492188 369.734375 310.027344 369.664062 309.570312 L 369.75 309.570312 C 368.574219 303.308594 363.089844 298.574219 356.496094 298.574219 C 349.902344 298.574219 344.417969 303.308594 343.234375 309.570312 L 343.320312 309.570312 C 343.257812 310.027344 343.21875 310.492188 343.21875 310.964844 L 343.21875 434.765625 L 319.070312 399.460938 L 319.140625 399.417969 C 314.644531 394.902344 307.449219 394.078125 302 397.796875 C 296.546875 401.515625 294.675781 408.515625 297.226562 414.351562 L 297.292969 414.304688 C 297.308594 414.328125 297.316406 414.34375 297.332031 414.367188 C 300.4375 422.847656 309.648438 438.445312 320.390625 455.210938 C 333.886719 476.285156 347.5 492.257812 352.910156 493.746094 C 362.347656 499.984375 378.441406 504.082031 396.714844 504.082031 C 405.472656 504.082031 414.246094 503.265625 422.722656 500.992188 C 429.386719 499.207031 436.925781 497.191406 442.242188 492.5625 C 453.617188 482.675781 453.113281 464.625 453.664062 450.851562 C 453.894531 445.371094 453.929688 439.882812 453.929688 434.398438 C 453.929688 405.625 451.535156 382.710938 445.757812 377.808594 "/>
</g>
<path style=" stroke:none;fill-rule:nonzero;fill:rgb(100%,100%,100%);fill-opacity:1;" d="M 379.410156 331.808594 C 381.445312 333.742188 384.664062 333.65625 386.605469 331.617188 C 393.570312 324.257812 397.40625 314.613281 397.40625 304.476562 C 397.40625 282.707031 379.714844 265.003906 357.960938 265.003906 C 336.207031 265.003906 318.511719 282.707031 318.511719 304.476562 C 318.511719 315.363281 322.855469 325.503906 330.722656 333.023438 C 331.707031 333.96875 332.972656 334.433594 334.238281 334.433594 C 335.582031 334.433594 336.917969 333.910156 337.917969 332.855469 C 339.863281 330.824219 339.785156 327.601562 337.75 325.664062 C 331.910156 320.082031 328.691406 312.554688 328.691406 304.476562 C 328.691406 288.328125 341.824219 275.1875 357.960938 275.1875 C 374.097656 275.1875 387.230469 288.328125 387.230469 304.476562 C 387.230469 311.996094 384.382812 319.148438 379.210938 324.609375 C 377.28125 326.65625 377.371094 329.878906 379.410156 331.808594 "/>
<g clip-path="url(#clip2)" clip-rule="nonzero">
<path style=" stroke:none;fill-rule:nonzero;fill:rgb(100%,100%,100%);fill-opacity:1;" d="M 318.429688 344.820312 C 319.421875 345.757812 320.679688 346.222656 321.945312 346.222656 C 323.289062 346.222656 324.625 345.695312 325.625 344.652344 C 327.570312 342.613281 327.492188 339.390625 325.464844 337.453125 C 316.0625 328.472656 310.890625 316.371094 310.890625 303.382812 C 310.890625 277.410156 332.011719 256.285156 357.960938 256.285156 C 383.917969 256.285156 405.03125 277.410156 405.03125 303.382812 C 405.03125 315.484375 400.453125 326.984375 392.136719 335.765625 C 390.207031 337.808594 390.289062 341.03125 392.332031 342.964844 C 394.371094 344.894531 397.589844 344.8125 399.527344 342.765625 C 409.640625 332.082031 415.207031 318.097656 415.207031 303.382812 C 415.207031 271.796875 389.527344 246.097656 357.960938 246.097656 C 326.394531 246.097656 300.710938 271.796875 300.710938 303.382812 C 300.710938 319.179688 307.007812 333.902344 318.429688 344.820312 "/>
</g>
</g>
</svg>
