<?xml version="1.0" encoding="UTF-8"?>
<svg xmlns="http://www.w3.org/2000/svg" xmlns:xlink="http://www.w3.org/1999/xlink" width="750pt" height="749.999995pt" viewBox="0 0 750 749.999995" version="1.2">
<defs>
<clipPath id="clip1">
  <path d="M 218.386719 257.539062 L 531.886719 257.539062 L 531.886719 492.289062 L 218.386719 492.289062 Z M 218.386719 257.539062 "/>
</clipPath>
</defs>
<g id="surface1">
<g clip-path="url(#clip1)" clip-rule="nonzero">
<path style=" stroke:none;fill-rule:nonzero;fill:rgb(67.059326%,11.759949%,7.449341%);fill-opacity:1;" d="M 267.371094 257.539062 L 482.902344 257.539062 C 484.507812 257.539062 486.109375 257.617188 487.703125 257.777344 C 489.300781 257.933594 490.886719 258.167969 492.460938 258.480469 C 494.03125 258.792969 495.585938 259.179688 497.121094 259.644531 C 498.65625 260.109375 500.167969 260.648438 501.648438 261.261719 C 503.128906 261.875 504.578125 262.558594 505.992188 263.316406 C 507.410156 264.070312 508.78125 264.894531 510.117188 265.78125 C 511.449219 266.671875 512.738281 267.625 513.976562 268.640625 C 515.21875 269.65625 516.40625 270.730469 517.539062 271.863281 C 518.675781 272.996094 519.75 274.183594 520.769531 275.421875 C 521.785156 276.660156 522.742188 277.945312 523.632812 279.277344 C 524.523438 280.609375 525.347656 281.980469 526.101562 283.390625 C 526.859375 284.804688 527.542969 286.25 528.160156 287.730469 C 528.773438 289.210938 529.3125 290.71875 529.777344 292.25 C 530.242188 293.78125 530.632812 295.335938 530.945312 296.90625 C 531.257812 298.476562 531.492188 300.058594 531.652344 301.652344 C 531.808594 303.246094 531.886719 304.84375 531.886719 306.445312 L 531.886719 443.382812 C 531.886719 444.984375 531.808594 446.582031 531.652344 448.179688 C 531.492188 449.773438 531.257812 451.355469 530.945312 452.925781 C 530.632812 454.496094 530.242188 456.046875 529.777344 457.582031 C 529.3125 459.113281 528.773438 460.621094 528.160156 462.101562 C 527.542969 463.578125 526.859375 465.027344 526.101562 466.4375 C 525.347656 467.851562 524.523438 469.222656 523.632812 470.554688 C 522.742188 471.886719 521.785156 473.171875 520.769531 474.410156 C 519.75 475.648438 518.675781 476.832031 517.539062 477.964844 C 516.40625 479.097656 515.21875 480.171875 513.976562 481.1875 C 512.738281 482.207031 511.449219 483.160156 510.117188 484.046875 C 508.78125 484.9375 507.410156 485.761719 505.992188 486.515625 C 504.578125 487.269531 503.128906 487.953125 501.648438 488.566406 C 500.167969 489.179688 498.65625 489.71875 497.121094 490.183594 C 495.585938 490.648438 494.03125 491.039062 492.460938 491.351562 C 490.886719 491.664062 489.300781 491.898438 487.703125 492.054688 C 486.109375 492.210938 484.507812 492.289062 482.902344 492.289062 L 267.371094 492.289062 C 265.765625 492.289062 264.167969 492.210938 262.570312 492.054688 C 260.972656 491.898438 259.386719 491.664062 257.816406 491.351562 C 256.242188 491.039062 254.6875 490.648438 253.152344 490.183594 C 251.617188 489.71875 250.109375 489.179688 248.625 488.566406 C 247.144531 487.953125 245.695312 487.269531 244.28125 486.515625 C 242.867188 485.761719 241.492188 484.9375 240.15625 484.046875 C 238.824219 483.160156 237.535156 482.207031 236.296875 481.1875 C 235.054688 480.171875 233.867188 479.097656 232.734375 477.964844 C 231.601562 476.832031 230.523438 475.648438 229.507812 474.410156 C 228.488281 473.171875 227.535156 471.886719 226.640625 470.554688 C 225.75 469.222656 224.925781 467.851562 224.171875 466.4375 C 223.414062 465.027344 222.730469 463.578125 222.117188 462.101562 C 221.5 460.621094 220.960938 459.113281 220.496094 457.582031 C 220.03125 456.046875 219.640625 454.496094 219.328125 452.925781 C 219.015625 451.355469 218.78125 449.773438 218.621094 448.179688 C 218.464844 446.582031 218.386719 444.984375 218.386719 443.382812 L 218.386719 306.445312 C 218.386719 304.84375 218.464844 303.246094 218.621094 301.652344 C 218.78125 300.058594 219.015625 298.476562 219.328125 296.90625 C 219.640625 295.335938 220.03125 293.78125 220.496094 292.25 C 220.960938 290.71875 221.5 289.210938 222.117188 287.730469 C 222.730469 286.25 223.414062 284.804688 224.171875 283.390625 C 224.925781 281.980469 225.75 280.609375 226.640625 279.277344 C 227.535156 277.945312 228.488281 276.660156 229.507812 275.421875 C 230.523438 274.183594 231.601562 272.996094 232.734375 271.863281 C 233.867188 270.730469 235.054688 269.65625 236.296875 268.640625 C 237.535156 267.625 238.824219 266.671875 240.15625 265.78125 C 241.492188 264.894531 242.867188 264.070312 244.28125 263.316406 C 245.695312 262.558594 247.144531 261.875 248.625 261.261719 C 250.109375 260.648438 251.617188 260.109375 253.152344 259.644531 C 254.6875 259.179688 256.242188 258.792969 257.816406 258.480469 C 259.386719 258.167969 260.972656 257.933594 262.570312 257.777344 C 264.167969 257.617188 265.765625 257.539062 267.371094 257.539062 Z M 267.371094 257.539062 "/>
</g>
<path style=" stroke:none;fill-rule:nonzero;fill:rgb(98.039246%,98.039246%,98.039246%);fill-opacity:1;" d="M 428.511719 366.171875 L 330.542969 317.265625 C 330.167969 317.078125 329.789062 316.917969 329.394531 316.78125 C 329.003906 316.640625 328.601562 316.53125 328.195312 316.445312 C 327.789062 316.355469 327.378906 316.296875 326.964844 316.261719 C 326.550781 316.226562 326.132812 316.21875 325.71875 316.238281 C 325.304688 316.257812 324.890625 316.300781 324.480469 316.371094 C 324.070312 316.441406 323.667969 316.539062 323.269531 316.660156 C 322.871094 316.785156 322.484375 316.929688 322.105469 317.101562 C 321.726562 317.273438 321.359375 317.46875 321.007812 317.6875 C 320.652344 317.90625 320.3125 318.144531 319.988281 318.40625 C 319.667969 318.667969 319.359375 318.949219 319.074219 319.246094 C 318.785156 319.546875 318.519531 319.863281 318.273438 320.199219 C 318.023438 320.535156 317.800781 320.882812 317.597656 321.246094 C 317.394531 321.605469 317.214844 321.980469 317.0625 322.367188 C 316.90625 322.75 316.777344 323.144531 316.671875 323.546875 C 316.566406 323.949219 316.488281 324.355469 316.433594 324.769531 C 316.382812 325.179688 316.355469 325.59375 316.355469 326.007812 L 316.355469 423.820312 C 316.355469 424.238281 316.382812 424.652344 316.433594 425.0625 C 316.488281 425.472656 316.566406 425.882812 316.671875 426.285156 C 316.777344 426.683594 316.90625 427.078125 317.0625 427.464844 C 317.214844 427.851562 317.394531 428.222656 317.597656 428.585938 C 317.800781 428.949219 318.023438 429.296875 318.273438 429.632812 C 318.519531 429.964844 318.785156 430.28125 319.074219 430.582031 C 319.359375 430.882812 319.667969 431.164062 319.988281 431.425781 C 320.3125 431.6875 320.652344 431.925781 321.007812 432.144531 C 321.359375 432.363281 321.726562 432.558594 322.105469 432.730469 C 322.484375 432.898438 322.871094 433.046875 323.269531 433.167969 C 323.667969 433.292969 324.070312 433.386719 324.480469 433.460938 C 324.890625 433.53125 325.304688 433.574219 325.71875 433.59375 C 326.132812 433.609375 326.550781 433.601562 326.964844 433.570312 C 327.378906 433.535156 327.789062 433.472656 328.195312 433.386719 C 328.601562 433.300781 329.003906 433.1875 329.394531 433.050781 C 329.789062 432.914062 330.167969 432.753906 330.542969 432.566406 L 428.511719 383.660156 C 429.324219 383.253906 430.070312 382.746094 430.742188 382.132812 C 431.414062 381.519531 431.992188 380.828125 432.472656 380.054688 C 432.949219 379.28125 433.3125 378.457031 433.5625 377.582031 C 433.8125 376.707031 433.9375 375.816406 433.9375 374.90625 C 433.9375 373.996094 433.8125 373.105469 433.5625 372.230469 C 433.3125 371.355469 432.949219 370.53125 432.472656 369.757812 C 431.992188 368.984375 431.414062 368.292969 430.742188 367.679688 C 430.070312 367.066406 429.324219 366.558594 428.511719 366.152344 Z M 428.511719 366.171875 "/>
</g>
</svg>
