<?xml version="1.0" encoding="UTF-8"?>
<svg xmlns="http://www.w3.org/2000/svg" xmlns:xlink="http://www.w3.org/1999/xlink" width="750pt" height="749.999995pt" viewBox="0 0 750 749.999995" version="1.2">
<defs>
<clipPath id="clip1">
  <path d="M 280 257.539062 L 469 257.539062 L 469 492.289062 L 280 492.289062 Z M 280 257.539062 "/>
</clipPath>
</defs>
<g id="surface1">
<g clip-path="url(#clip1)" clip-rule="nonzero">
<path style=" stroke:none;fill-rule:nonzero;fill:rgb(67.059326%,11.759949%,7.449341%);fill-opacity:1;" d="M 442.371094 257.539062 C 443.242188 257.539062 444.113281 257.582031 444.980469 257.667969 C 445.847656 257.753906 446.707031 257.882812 447.5625 258.054688 C 448.417969 258.222656 449.261719 258.433594 450.097656 258.6875 C 450.933594 258.941406 451.753906 259.234375 452.558594 259.570312 C 453.363281 259.902344 454.148438 260.277344 454.917969 260.6875 C 455.6875 261.101562 456.433594 261.546875 457.160156 262.03125 C 457.886719 262.519531 458.585938 263.039062 459.257812 263.589844 C 459.933594 264.144531 460.578125 264.730469 461.195312 265.347656 C 461.8125 265.964844 462.394531 266.609375 462.949219 267.285156 C 463.5 267.960938 464.019531 268.660156 464.503906 269.386719 C 464.988281 270.113281 465.4375 270.859375 465.847656 271.628906 C 466.257812 272.398438 466.632812 273.1875 466.964844 273.996094 C 467.296875 274.800781 467.59375 275.621094 467.84375 276.457031 C 468.097656 277.292969 468.308594 278.140625 468.480469 278.996094 C 468.648438 279.851562 468.777344 280.714844 468.863281 281.582031 C 468.949219 282.449219 468.992188 283.320312 468.992188 284.195312 L 468.992188 465.636719 C 468.992188 466.511719 468.949219 467.378906 468.863281 468.25 C 468.777344 469.117188 468.648438 469.980469 468.480469 470.835938 C 468.308594 471.691406 468.097656 472.539062 467.84375 473.375 C 467.59375 474.210938 467.296875 475.03125 466.964844 475.835938 C 466.632812 476.644531 466.257812 477.433594 465.847656 478.203125 C 465.4375 478.972656 464.988281 479.71875 464.503906 480.445312 C 464.019531 481.171875 463.5 481.871094 462.949219 482.546875 C 462.394531 483.222656 461.8125 483.867188 461.195312 484.484375 C 460.578125 485.101562 459.933594 485.6875 459.257812 486.242188 C 458.585938 486.792969 457.886719 487.3125 457.160156 487.800781 C 456.433594 488.285156 455.6875 488.730469 454.917969 489.144531 C 454.148438 489.554688 453.363281 489.929688 452.558594 490.261719 C 451.753906 490.597656 450.933594 490.890625 450.097656 491.144531 C 449.261719 491.398438 448.417969 491.609375 447.5625 491.777344 C 446.707031 491.949219 445.847656 492.078125 444.980469 492.164062 C 444.113281 492.25 443.242188 492.289062 442.371094 492.289062 L 306.769531 492.289062 C 305.898438 492.289062 305.027344 492.25 304.160156 492.164062 C 303.292969 492.078125 302.429688 491.949219 301.574219 491.777344 C 300.722656 491.609375 299.875 491.398438 299.042969 491.144531 C 298.207031 490.890625 297.386719 490.597656 296.582031 490.261719 C 295.777344 489.929688 294.988281 489.554688 294.21875 489.144531 C 293.453125 488.730469 292.703125 488.285156 291.980469 487.800781 C 291.253906 487.3125 290.554688 486.792969 289.882812 486.242188 C 289.207031 485.6875 288.5625 485.101562 287.945312 484.484375 C 287.328125 483.867188 286.742188 483.222656 286.191406 482.546875 C 285.636719 481.871094 285.117188 481.171875 284.632812 480.445312 C 284.148438 479.71875 283.703125 478.972656 283.292969 478.203125 C 282.878906 477.433594 282.507812 476.644531 282.175781 475.835938 C 281.839844 475.03125 281.546875 474.210938 281.292969 473.375 C 281.042969 472.539062 280.828125 471.691406 280.660156 470.835938 C 280.488281 469.980469 280.363281 469.117188 280.277344 468.25 C 280.191406 467.378906 280.148438 466.511719 280.148438 465.636719 L 280.148438 315.691406 C 280.144531 314.09375 280.449219 312.558594 281.058594 311.082031 C 281.667969 309.609375 282.535156 308.308594 283.664062 307.179688 L 329.726562 261.0625 C 330.855469 259.933594 332.152344 259.0625 333.625 258.453125 C 335.097656 257.839844 336.632812 257.539062 338.226562 257.539062 Z M 442.371094 257.539062 "/>
</g>
<path style=" stroke:none;fill-rule:nonzero;fill:rgb(67.059326%,11.759949%,7.449341%);fill-opacity:1;" d="M 329.726562 261.0625 C 330.75 260.042969 331.921875 259.246094 333.246094 258.664062 L 333.246094 285.367188 C 333.246094 286.515625 333.1875 287.660156 333.078125 288.800781 C 332.964844 289.941406 332.796875 291.074219 332.574219 292.199219 C 332.347656 293.324219 332.070312 294.4375 331.738281 295.535156 C 331.40625 296.632812 331.019531 297.710938 330.582031 298.769531 C 330.144531 299.828125 329.65625 300.863281 329.117188 301.875 C 328.574219 302.886719 327.988281 303.871094 327.351562 304.824219 C 326.714844 305.777344 326.03125 306.695312 325.304688 307.582031 C 324.578125 308.46875 323.8125 309.316406 323 310.128906 C 322.191406 310.941406 321.34375 311.710938 320.457031 312.4375 C 319.574219 313.164062 318.652344 313.847656 317.703125 314.484375 C 316.75 315.121094 315.765625 315.710938 314.757812 316.25 C 313.746094 316.792969 312.710938 317.28125 311.65625 317.71875 C 310.597656 318.160156 309.519531 318.542969 308.421875 318.878906 C 307.328125 319.210938 306.21875 319.488281 305.09375 319.710938 C 303.96875 319.9375 302.839844 320.105469 301.699219 320.214844 C 300.558594 320.328125 299.414062 320.386719 298.269531 320.386719 L 280.148438 320.386719 L 280.148438 315.496094 C 280.144531 313.898438 280.449219 312.363281 281.058594 310.886719 C 281.667969 309.414062 282.535156 308.113281 283.664062 306.984375 Z M 329.726562 261.0625 "/>
<path style=" stroke:none;fill-rule:nonzero;fill:rgb(100%,100%,100%);fill-opacity:1;" d="M 281.273438 310.703125 C 281.847656 309.378906 282.648438 308.203125 283.664062 307.179688 L 329.726562 261.0625 C 330.75 260.042969 331.921875 259.246094 333.246094 258.664062 L 333.246094 284.046875 C 333.246094 284.921875 333.203125 285.792969 333.117188 286.660156 C 333.03125 287.53125 332.902344 288.390625 332.734375 289.246094 C 332.5625 290.105469 332.351562 290.949219 332.097656 291.785156 C 331.84375 292.621094 331.550781 293.441406 331.21875 294.25 C 330.886719 295.054688 330.511719 295.84375 330.101562 296.613281 C 329.691406 297.382812 329.242188 298.128906 328.757812 298.855469 C 328.273438 299.582031 327.753906 300.28125 327.203125 300.957031 C 326.648438 301.632812 326.0625 302.277344 325.449219 302.894531 C 324.832031 303.511719 324.1875 304.097656 323.511719 304.652344 C 322.839844 305.207031 322.136719 305.726562 321.414062 306.210938 C 320.6875 306.695312 319.941406 307.144531 319.171875 307.554688 C 318.402344 307.964844 317.617188 308.339844 316.8125 308.671875 C 316.003906 309.007812 315.183594 309.300781 314.351562 309.554688 C 313.515625 309.808594 312.671875 310.019531 311.816406 310.191406 C 310.960938 310.359375 310.101562 310.488281 309.234375 310.574219 C 308.363281 310.660156 307.496094 310.703125 306.625 310.703125 Z M 281.273438 310.703125 "/>
<path style=" stroke:none;fill-rule:nonzero;fill:rgb(100%,100%,100%);fill-opacity:1;" d="M 358.351562 379.804688 C 358.4375 381.441406 358.1875 383.023438 357.613281 384.554688 C 357.035156 386.085938 356.171875 387.4375 355.03125 388.609375 C 353.664062 389.742188 352.136719 390.582031 350.449219 391.128906 C 348.761719 391.679688 347.03125 391.898438 345.261719 391.789062 L 342.625 391.789062 L 342.625 403.378906 L 333.050781 403.378906 L 333.050781 368.460938 L 345.261719 368.460938 C 347.007812 368.339844 348.722656 368.53125 350.40625 369.027344 C 352.085938 369.523438 353.628906 370.296875 355.03125 371.347656 C 355.613281 371.878906 356.125 372.46875 356.570312 373.117188 C 357.019531 373.765625 357.382812 374.457031 357.671875 375.191406 C 357.960938 375.921875 358.160156 376.679688 358.277344 377.460938 C 358.390625 378.238281 358.417969 379.019531 358.351562 379.804688 Z M 342.476562 384.355469 L 344.1875 384.355469 C 344.808594 384.390625 345.410156 384.304688 345.996094 384.089844 C 346.582031 383.878906 347.101562 383.558594 347.558594 383.132812 C 347.984375 382.699219 348.308594 382.195312 348.519531 381.625 C 348.734375 381.054688 348.820312 380.464844 348.777344 379.855469 C 348.777344 377.507812 347.507812 376.335938 344.871094 376.335938 L 342.476562 376.335938 Z M 342.476562 384.355469 "/>
<path style=" stroke:none;fill-rule:nonzero;fill:rgb(100%,100%,100%);fill-opacity:1;" d="M 392.253906 385.1875 C 392.328125 386.414062 392.28125 387.640625 392.105469 388.855469 C 391.929688 390.074219 391.632812 391.265625 391.210938 392.421875 C 390.789062 393.578125 390.257812 394.679688 389.609375 395.726562 C 388.960938 396.773438 388.214844 397.742188 387.367188 398.636719 C 386.464844 399.476562 385.488281 400.21875 384.4375 400.859375 C 383.386719 401.503906 382.28125 402.035156 381.125 402.457031 C 379.964844 402.875 378.777344 403.175781 377.558594 403.355469 C 376.339844 403.535156 375.117188 403.59375 373.886719 403.527344 L 362.699219 403.527344 L 362.699219 368.460938 L 374.570312 368.460938 C 376.925781 368.304688 379.222656 368.597656 381.464844 369.34375 C 383.703125 370.085938 385.71875 371.226562 387.515625 372.765625 C 388.324219 373.574219 389.042969 374.457031 389.664062 375.417969 C 390.289062 376.378906 390.804688 377.398438 391.210938 378.46875 C 391.621094 379.539062 391.910156 380.640625 392.085938 381.773438 C 392.261719 382.902344 392.316406 384.042969 392.253906 385.1875 Z M 382.484375 385.527344 C 382.574219 384.269531 382.464844 383.027344 382.144531 381.804688 C 381.828125 380.582031 381.320312 379.441406 380.625 378.386719 C 379.890625 377.585938 379.019531 376.980469 378.007812 376.578125 C 376.996094 376.175781 375.949219 376.011719 374.863281 376.089844 L 372.078125 376.089844 L 372.078125 395.652344 L 374.179688 395.652344 C 375.367188 395.757812 376.515625 395.589844 377.625 395.148438 C 378.734375 394.710938 379.683594 394.046875 380.480469 393.15625 C 381.238281 392.039062 381.792969 390.824219 382.136719 389.515625 C 382.480469 388.207031 382.59375 386.878906 382.484375 385.527344 Z M 382.484375 385.527344 "/>
<path style=" stroke:none;fill-rule:nonzero;fill:rgb(100%,100%,100%);fill-opacity:1;" d="M 406.566406 403.378906 L 397.285156 403.378906 L 397.285156 368.460938 L 417.898438 368.460938 L 417.898438 376.039062 L 406.566406 376.039062 L 406.566406 382.691406 L 417.019531 382.691406 L 417.019531 390.273438 L 406.566406 390.273438 Z M 406.566406 403.378906 "/>
</g>
</svg>
