<?xml version="1.0" encoding="UTF-8"?>
<svg xmlns="http://www.w3.org/2000/svg" xmlns:xlink="http://www.w3.org/1999/xlink" width="750pt" height="749.999995pt" viewBox="0 0 750 749.999995" version="1.2">
<defs>
<clipPath id="clip1">
  <path d="M 232 282 L 519 282 L 519 578.75 L 232 578.75 Z M 232 282 "/>
</clipPath>
</defs>
<g id="surface1">
<g clip-path="url(#clip1)" clip-rule="nonzero">
<path style=" stroke:none;fill-rule:nonzero;fill:rgb(24.308777%,49.01886%,36.859131%);fill-opacity:1;" d="M 302.292969 359.121094 C 302.292969 362.050781 302.46875 364.96875 302.820312 367.875 C 303.171875 370.78125 303.691406 373.65625 304.390625 376.5 C 305.085938 379.34375 305.949219 382.136719 306.976562 384.875 C 308.007812 387.617188 309.199219 390.285156 310.550781 392.882812 C 311.902344 395.476562 313.402344 397.984375 315.054688 400.402344 C 316.707031 402.816406 318.496094 405.128906 320.421875 407.328125 C 322.351562 409.53125 324.40625 411.609375 326.582031 413.5625 C 328.761719 415.515625 331.046875 417.335938 333.441406 419.015625 C 334.183594 419.53125 334.839844 420.136719 335.414062 420.832031 C 335.988281 421.53125 336.457031 422.292969 336.820312 423.121094 C 337.179688 423.945312 337.425781 424.808594 337.550781 425.703125 C 337.675781 426.59375 337.675781 427.488281 337.550781 428.386719 C 337.429688 429.28125 337.1875 430.140625 336.824219 430.96875 C 336.464844 431.796875 335.996094 432.558594 335.425781 433.257812 C 334.851562 433.953125 334.195312 434.5625 333.457031 435.078125 C 332.714844 435.59375 331.921875 436 331.066406 436.296875 C 328.0625 437.292969 325.09375 438.382812 322.160156 439.570312 C 319.226562 440.757812 316.332031 442.039062 313.480469 443.410156 C 310.628906 444.78125 307.820312 446.242188 305.0625 447.796875 C 302.304688 449.347656 299.597656 450.988281 296.945312 452.710938 C 294.289062 454.4375 291.695312 456.246094 289.15625 458.136719 C 286.617188 460.03125 284.140625 462 281.730469 464.050781 C 279.316406 466.101562 276.972656 468.226562 274.695312 470.429688 C 272.421875 472.628906 270.21875 474.902344 268.085938 477.242188 C 265.957031 479.585938 263.902344 481.992188 261.925781 484.46875 C 259.949219 486.941406 258.050781 489.476562 256.238281 492.070312 C 254.421875 494.664062 252.691406 497.316406 251.046875 500.023438 C 249.402344 502.726562 247.84375 505.484375 246.375 508.289062 C 244.90625 511.097656 243.53125 513.945312 242.242188 516.839844 C 240.957031 519.734375 239.765625 522.667969 238.664062 525.636719 C 237.566406 528.609375 236.5625 531.609375 235.65625 534.644531 C 234.75 537.679688 233.941406 540.742188 233.230469 543.828125 C 233.003906 544.871094 232.832031 545.921875 232.722656 546.984375 C 232.613281 548.042969 232.558594 549.109375 232.570312 550.175781 C 232.578125 551.242188 232.644531 552.304688 232.769531 553.363281 C 232.898438 554.421875 233.082031 555.472656 233.328125 556.511719 C 233.570312 557.550781 233.871094 558.570312 234.230469 559.574219 C 234.589844 560.582031 235.003906 561.5625 235.46875 562.519531 C 235.9375 563.480469 236.457031 564.410156 237.03125 565.308594 C 237.601562 566.207031 238.222656 567.074219 238.890625 567.90625 C 239.558594 568.738281 240.273438 569.527344 241.027344 570.277344 C 241.785156 571.03125 242.582031 571.734375 243.417969 572.398438 C 244.253906 573.058594 245.125 573.671875 246.027344 574.238281 C 246.933594 574.804688 247.863281 575.316406 248.824219 575.773438 C 249.789062 576.234375 250.773438 576.640625 251.777344 576.992188 C 252.785156 577.339844 253.808594 577.632812 254.847656 577.867188 C 255.886719 578.105469 256.9375 578.28125 257.996094 578.398438 C 259.054688 578.515625 260.117188 578.574219 261.183594 578.574219 L 489.5625 578.574219 C 490.628906 578.578125 491.695312 578.523438 492.757812 578.410156 C 493.816406 578.292969 494.871094 578.121094 495.910156 577.886719 C 496.953125 577.652344 497.980469 577.363281 498.988281 577.015625 C 500 576.667969 500.984375 576.265625 501.949219 575.804688 C 502.914062 575.347656 503.847656 574.835938 504.757812 574.273438 C 505.664062 573.707031 506.535156 573.09375 507.375 572.433594 C 508.214844 571.773438 509.011719 571.066406 509.773438 570.316406 C 510.53125 569.5625 511.246094 568.773438 511.917969 567.941406 C 512.589844 567.109375 513.210938 566.242188 513.785156 565.34375 C 514.359375 564.441406 514.882812 563.511719 515.351562 562.550781 C 515.820312 561.589844 516.238281 560.609375 516.597656 559.601562 C 516.957031 558.597656 517.257812 557.574219 517.503906 556.53125 C 517.75 555.492188 517.9375 554.441406 518.0625 553.382812 C 518.191406 552.320312 518.261719 551.253906 518.269531 550.1875 C 518.277344 549.117188 518.226562 548.050781 518.117188 546.988281 C 518.003906 545.925781 517.835938 544.871094 517.605469 543.828125 C 516.894531 540.738281 516.082031 537.675781 515.171875 534.636719 C 514.265625 531.601562 513.257812 528.597656 512.15625 525.625 C 511.054688 522.652344 509.859375 519.714844 508.570312 516.820312 C 507.28125 513.925781 505.902344 511.074219 504.429688 508.265625 C 502.957031 505.457031 501.394531 502.699219 499.746094 499.992188 C 498.097656 497.285156 496.363281 494.632812 494.546875 492.039062 C 492.726562 489.441406 490.828125 486.90625 488.847656 484.429688 C 486.867188 481.957031 484.808594 479.550781 482.671875 477.207031 C 480.539062 474.863281 478.332031 472.59375 476.050781 470.390625 C 473.769531 468.191406 471.421875 466.066406 469.003906 464.015625 C 466.585938 461.964844 464.109375 459.996094 461.566406 458.105469 C 459.023438 456.214844 456.421875 454.40625 453.761719 452.683594 C 451.105469 450.960938 448.394531 449.324219 445.628906 447.773438 C 442.867188 446.222656 440.058594 444.761719 437.199219 443.390625 C 434.34375 442.023438 431.445312 440.746094 428.507812 439.5625 C 425.570312 438.378906 422.59375 437.289062 419.585938 436.296875 C 418.738281 435.996094 417.945312 435.585938 417.207031 435.066406 C 416.472656 434.542969 415.820312 433.933594 415.253906 433.234375 C 414.6875 432.53125 414.222656 431.769531 413.867188 430.941406 C 413.511719 430.109375 413.273438 429.25 413.15625 428.355469 C 413.039062 427.460938 413.042969 426.566406 413.171875 425.675781 C 413.300781 424.78125 413.546875 423.925781 413.914062 423.101562 C 414.28125 422.277344 414.75 421.515625 415.328125 420.824219 C 415.902344 420.128906 416.5625 419.527344 417.304688 419.015625 C 419.917969 417.195312 422.402344 415.21875 424.757812 413.074219 C 427.113281 410.933594 429.316406 408.644531 431.375 406.214844 C 433.433594 403.785156 435.320312 401.230469 437.046875 398.550781 C 438.769531 395.871094 440.3125 393.09375 441.671875 390.214844 C 443.03125 387.332031 444.199219 384.378906 445.175781 381.34375 C 446.148438 378.3125 446.921875 375.230469 447.496094 372.097656 C 448.070312 368.960938 448.433594 365.804688 448.59375 362.621094 C 448.753906 359.441406 448.707031 356.261719 448.453125 353.085938 C 448.40625 351.890625 448.324219 350.695312 448.21875 349.503906 C 448.109375 348.308594 447.972656 347.121094 447.804688 345.933594 C 447.636719 344.746094 447.441406 343.566406 447.21875 342.390625 C 446.992188 341.210938 446.738281 340.042969 446.457031 338.878906 C 446.175781 337.714844 445.863281 336.558594 445.527344 335.40625 C 445.1875 334.257812 444.820312 333.121094 444.425781 331.988281 C 444.03125 330.859375 443.609375 329.738281 443.160156 328.625 C 442.710938 327.515625 442.234375 326.417969 441.730469 325.332031 C 441.226562 324.246094 440.699219 323.171875 440.140625 322.109375 C 439.585938 321.050781 439.003906 320.003906 438.394531 318.96875 C 437.789062 317.9375 437.15625 316.921875 436.5 315.921875 C 435.839844 314.917969 435.160156 313.933594 434.453125 312.96875 C 433.75 312 433.019531 311.050781 432.269531 310.117188 C 431.515625 309.1875 430.742188 308.273438 429.945312 307.378906 C 429.148438 306.488281 428.328125 305.613281 427.488281 304.757812 C 426.648438 303.90625 425.789062 303.074219 424.910156 302.261719 C 424.027344 301.449219 423.128906 300.660156 422.210938 299.894531 C 421.289062 299.128906 420.351562 298.382812 419.398438 297.664062 C 418.441406 296.941406 417.46875 296.246094 416.480469 295.570312 C 415.488281 294.898438 414.484375 294.25 413.460938 293.625 C 412.4375 293 411.402344 292.402344 410.351562 291.832031 C 409.300781 291.257812 408.238281 290.710938 407.160156 290.191406 C 406.082031 289.671875 404.992188 289.175781 403.886719 288.710938 C 402.785156 288.242188 401.671875 287.800781 400.550781 287.390625 C 399.425781 286.976562 398.292969 286.59375 397.152344 286.238281 C 396.007812 285.878906 394.859375 285.550781 393.699219 285.25 C 392.539062 284.953125 391.375 284.679688 390.203125 284.4375 C 389.03125 284.195312 387.855469 283.980469 386.671875 283.796875 C 385.488281 283.609375 384.304688 283.453125 383.113281 283.328125 C 381.921875 283.199219 380.730469 283.101562 379.535156 283.035156 C 378.339844 282.96875 377.144531 282.929688 375.949219 282.917969 C 374.75 282.910156 373.554688 282.929688 372.359375 282.980469 C 371.164062 283.027344 369.96875 283.105469 368.777344 283.214844 C 367.585938 283.324219 366.398438 283.460938 365.210938 283.625 C 364.027344 283.792969 362.847656 283.988281 361.671875 284.214844 C 360.496094 284.4375 359.328125 284.691406 358.164062 284.972656 C 357 285.253906 355.84375 285.566406 354.695312 285.902344 C 353.546875 286.242188 352.410156 286.609375 351.28125 287.003906 C 350.148438 287.398438 349.03125 287.820312 347.921875 288.269531 C 346.8125 288.71875 345.714844 289.195312 344.628906 289.699219 C 343.542969 290.203125 342.46875 290.734375 341.410156 291.289062 C 340.347656 291.84375 339.304688 292.425781 338.273438 293.035156 C 337.242188 293.640625 336.226562 294.273438 335.222656 294.933594 C 334.222656 295.589844 333.242188 296.273438 332.273438 296.976562 C 331.304688 297.683594 330.359375 298.414062 329.425781 299.164062 C 328.496094 299.917969 327.582031 300.691406 326.691406 301.492188 C 325.796875 302.289062 324.921875 303.105469 324.070312 303.945312 C 323.21875 304.785156 322.386719 305.648438 321.574219 306.527344 C 320.765625 307.410156 319.976562 308.308594 319.207031 309.230469 C 318.441406 310.148438 317.699219 311.089844 316.976562 312.042969 C 316.257812 313 315.558594 313.972656 314.886719 314.964844 C 314.214844 315.957031 313.566406 316.960938 312.941406 317.984375 C 312.320312 319.007812 311.722656 320.042969 311.148438 321.097656 C 310.574219 322.148438 310.027344 323.214844 309.507812 324.292969 C 308.988281 325.371094 308.496094 326.460938 308.027344 327.566406 C 307.5625 328.667969 307.121094 329.78125 306.707031 330.90625 C 306.296875 332.03125 305.910156 333.164062 305.554688 334.308594 C 305.199219 335.453125 304.871094 336.601562 304.570312 337.761719 C 304.269531 338.921875 303.996094 340.089844 303.753906 341.261719 C 303.511719 342.433594 303.296875 343.613281 303.113281 344.796875 C 302.925781 345.980469 302.769531 347.167969 302.644531 348.359375 C 302.515625 349.550781 302.417969 350.742188 302.351562 351.9375 C 302.28125 353.136719 302.242188 354.332031 302.234375 355.53125 C 302.222656 356.726562 302.242188 357.925781 302.292969 359.121094 Z M 302.292969 359.121094 "/>
</g>
<path style=" stroke:none;fill-rule:nonzero;fill:rgb(24.308777%,49.01886%,36.859131%);fill-opacity:1;" d="M 221.539062 326.570312 C 218.53125 327.566406 215.558594 328.65625 212.625 329.839844 C 209.6875 331.027344 206.792969 332.304688 203.9375 333.675781 C 201.082031 335.046875 198.273438 336.507812 195.511719 338.058594 C 192.753906 339.609375 190.042969 341.246094 187.386719 342.972656 C 184.730469 344.695312 182.132812 346.503906 179.59375 348.394531 C 177.050781 350.285156 174.574219 352.257812 172.160156 354.308594 C 169.746094 356.359375 167.398438 358.484375 165.121094 360.683594 C 162.84375 362.886719 160.636719 365.15625 158.503906 367.5 C 156.371094 369.839844 154.316406 372.25 152.335938 374.722656 C 150.355469 377.195312 148.460938 379.730469 146.644531 382.328125 C 144.824219 384.921875 143.09375 387.574219 141.449219 390.28125 C 139.800781 392.988281 138.242188 395.746094 136.769531 398.550781 C 135.300781 401.359375 133.921875 404.207031 132.632812 407.105469 C 131.34375 410 130.152344 412.933594 129.050781 415.902344 C 127.949219 418.875 126.945312 421.878906 126.039062 424.914062 C 125.128906 427.953125 124.320312 431.015625 123.609375 434.101562 C 123.378906 435.144531 123.210938 436.195312 123.101562 437.257812 C 122.988281 438.316406 122.9375 439.382812 122.945312 440.449219 C 122.953125 441.515625 123.023438 442.578125 123.148438 443.636719 C 123.277344 444.695312 123.460938 445.746094 123.707031 446.785156 C 123.949219 447.824219 124.25 448.84375 124.609375 449.847656 C 124.96875 450.855469 125.382812 451.835938 125.847656 452.792969 C 126.316406 453.753906 126.835938 454.683594 127.410156 455.582031 C 127.980469 456.480469 128.601562 457.347656 129.269531 458.179688 C 129.9375 459.007812 130.648438 459.800781 131.40625 460.550781 C 132.164062 461.304688 132.960938 462.007812 133.796875 462.671875 C 134.632812 463.332031 135.5 463.945312 136.40625 464.511719 C 137.308594 465.078125 138.242188 465.589844 139.203125 466.050781 C 140.167969 466.507812 141.148438 466.914062 142.15625 467.265625 C 143.164062 467.613281 144.1875 467.90625 145.226562 468.144531 C 146.265625 468.378906 147.316406 468.554688 148.375 468.671875 C 149.433594 468.792969 150.496094 468.851562 151.5625 468.847656 L 214.136719 468.847656 C 216.195312 468.863281 218.234375 468.65625 220.246094 468.222656 C 222.261719 467.789062 224.203125 467.144531 226.074219 466.28125 C 227.945312 465.421875 229.699219 464.367188 231.335938 463.117188 C 232.976562 461.867188 234.460938 460.457031 235.789062 458.882812 C 244.371094 448.515625 253.960938 439.1875 264.5625 430.902344 C 265.742188 429.933594 266.835938 428.875 267.84375 427.734375 C 268.855469 426.589844 269.765625 425.371094 270.582031 424.082031 C 271.398438 422.792969 272.105469 421.449219 272.707031 420.046875 C 273.308594 418.644531 273.796875 417.203125 274.167969 415.722656 C 274.539062 414.242188 274.792969 412.742188 274.925781 411.222656 C 275.058594 409.699219 275.066406 408.179688 274.957031 406.65625 C 274.847656 405.136719 274.621094 403.632812 274.269531 402.144531 C 273.921875 400.660156 273.457031 399.210938 272.875 397.800781 C 272.242188 396.101562 271.648438 394.386719 271.097656 392.660156 C 270.550781 390.929688 270.042969 389.1875 269.578125 387.433594 C 269.117188 385.679688 268.695312 383.914062 268.320312 382.140625 C 267.941406 380.367188 267.609375 378.582031 267.324219 376.792969 C 267.035156 375 266.792969 373.203125 266.59375 371.398438 C 266.394531 369.597656 266.242188 367.789062 266.132812 365.976562 C 266.023438 364.167969 265.957031 362.355469 265.9375 360.539062 C 265.917969 358.726562 265.945312 356.910156 266.015625 355.097656 C 266.085938 353.285156 266.199219 351.476562 266.359375 349.667969 C 266.519531 347.859375 266.726562 346.058594 266.976562 344.261719 C 267.226562 342.464844 267.519531 340.675781 267.855469 338.890625 C 268.195312 337.109375 268.578125 335.335938 269.003906 333.574219 C 269.429688 331.808594 269.898438 330.058594 270.414062 328.316406 C 270.925781 326.578125 271.480469 324.851562 272.078125 323.136719 C 272.675781 321.425781 273.316406 319.730469 274 318.046875 C 274.683594 316.367188 275.40625 314.703125 276.171875 313.058594 C 276.9375 311.414062 277.742188 309.789062 278.585938 308.183594 C 279.433594 306.578125 280.316406 304.996094 281.242188 303.4375 C 282.164062 301.875 283.128906 300.335938 284.128906 298.824219 C 285.128906 297.3125 286.164062 295.824219 287.238281 294.363281 C 288.3125 292.902344 289.421875 291.464844 290.566406 290.058594 C 291.710938 288.652344 292.890625 287.277344 294.105469 285.925781 C 295.316406 284.578125 296.5625 283.261719 297.84375 281.976562 C 299.121094 280.691406 300.429688 279.4375 301.769531 278.214844 C 303.109375 276.992188 304.480469 275.808594 305.878906 274.652344 C 307.28125 273.5 308.707031 272.382812 310.160156 271.300781 C 311.617188 270.21875 313.097656 269.171875 314.605469 268.164062 C 316.109375 267.15625 317.640625 266.183594 319.195312 265.25 C 320.75 264.320312 322.328125 263.425781 323.925781 262.570312 C 325.527344 261.714844 327.144531 260.902344 328.785156 260.128906 C 330.421875 259.351562 332.082031 258.621094 333.757812 257.929688 C 335.433594 257.238281 337.125 256.585938 338.832031 255.980469 C 338.957031 254.734375 339.054688 253.488281 339.113281 252.238281 C 339.175781 250.988281 339.207031 249.738281 339.203125 248.484375 C 339.199219 247.234375 339.164062 245.984375 339.097656 244.734375 C 339.027344 243.484375 338.929688 242.238281 338.796875 240.996094 C 338.664062 239.75 338.5 238.511719 338.304688 237.273438 C 338.109375 236.039062 337.878906 234.808594 337.617188 233.585938 C 337.359375 232.363281 337.066406 231.144531 336.742188 229.9375 C 336.421875 228.726562 336.066406 227.527344 335.679688 226.339844 C 335.296875 225.148438 334.878906 223.96875 334.433594 222.800781 C 333.988281 221.632812 333.511719 220.476562 333.003906 219.332031 C 332.5 218.1875 331.964844 217.054688 331.398438 215.941406 C 330.835938 214.824219 330.242188 213.722656 329.621094 212.636719 C 328.996094 211.550781 328.347656 210.484375 327.671875 209.433594 C 326.992188 208.378906 326.289062 207.347656 325.558594 206.332031 C 324.828125 205.316406 324.074219 204.320312 323.289062 203.34375 C 322.507812 202.367188 321.703125 201.414062 320.871094 200.480469 C 320.039062 199.542969 319.183594 198.632812 318.304688 197.742188 C 317.425781 196.851562 316.523438 195.988281 315.601562 195.144531 C 314.675781 194.300781 313.730469 193.480469 312.765625 192.6875 C 311.800781 191.894531 310.8125 191.125 309.808594 190.382812 C 308.800781 189.640625 307.777344 188.921875 306.734375 188.234375 C 305.691406 187.542969 304.632812 186.882812 303.554688 186.246094 C 302.476562 185.613281 301.382812 185.007812 300.277344 184.429688 C 299.167969 183.851562 298.042969 183.300781 296.90625 182.78125 C 295.769531 182.261719 294.621094 181.773438 293.457031 181.3125 C 292.296875 180.851562 291.121094 180.421875 289.9375 180.023438 C 288.753906 179.625 287.558594 179.253906 286.355469 178.917969 C 285.152344 178.582031 283.9375 178.273438 282.71875 178 C 281.5 177.726562 280.273438 177.484375 279.042969 177.273438 C 277.808594 177.0625 276.574219 176.882812 275.332031 176.738281 C 274.089844 176.589844 272.84375 176.476562 271.597656 176.394531 C 270.351562 176.3125 269.101562 176.261719 267.851562 176.246094 C 265.90625 176.191406 263.960938 176.21875 262.019531 176.320312 C 260.074219 176.421875 258.136719 176.601562 256.207031 176.859375 C 254.277344 177.117188 252.363281 177.453125 250.460938 177.863281 C 248.558594 178.273438 246.675781 178.761719 244.808594 179.320312 C 242.945312 179.882812 241.109375 180.519531 239.292969 181.226562 C 237.480469 181.933594 235.699219 182.714844 233.949219 183.566406 C 232.195312 184.417969 230.484375 185.335938 228.804688 186.324219 C 227.128906 187.3125 225.492188 188.367188 223.898438 189.484375 C 222.304688 190.605469 220.757812 191.785156 219.261719 193.027344 C 217.761719 194.273438 216.3125 195.570312 214.917969 196.929688 C 213.523438 198.289062 212.183594 199.699219 210.902344 201.167969 C 209.617188 202.632812 208.394531 204.148438 207.234375 205.710938 C 206.074219 207.273438 204.976562 208.878906 203.941406 210.53125 C 202.910156 212.183594 201.941406 213.871094 201.042969 215.601562 C 200.144531 217.328125 199.316406 219.089844 198.558594 220.886719 C 197.800781 222.679688 197.117188 224.5 196.503906 226.351562 C 195.890625 228.199219 195.351562 230.070312 194.890625 231.964844 C 194.425781 233.855469 194.039062 235.765625 193.730469 237.6875 C 193.417969 239.609375 193.183594 241.542969 193.027344 243.484375 C 192.871094 245.425781 192.792969 247.371094 192.792969 249.320312 C 192.789062 251.269531 192.867188 253.214844 193.019531 255.15625 C 193.175781 257.097656 193.40625 259.03125 193.714844 260.957031 C 194.023438 262.878906 194.40625 264.789062 194.867188 266.679688 C 195.328125 268.574219 195.863281 270.445312 196.472656 272.296875 C 197.082031 274.144531 197.765625 275.96875 198.523438 277.765625 C 199.277344 279.558594 200.105469 281.324219 201 283.050781 C 201.894531 284.78125 202.859375 286.472656 203.890625 288.125 C 204.921875 289.777344 206.019531 291.386719 207.179688 292.953125 C 208.335938 294.515625 209.558594 296.03125 210.839844 297.5 C 212.121094 298.964844 213.457031 300.378906 214.851562 301.742188 C 216.242188 303.101562 217.6875 304.402344 219.1875 305.648438 C 220.683594 306.894531 222.230469 308.074219 223.820312 309.195312 C 224.574219 309.703125 225.246094 310.304688 225.832031 311.003906 C 226.421875 311.699219 226.902344 312.460938 227.273438 313.289062 C 227.648438 314.121094 227.902344 314.984375 228.035156 315.886719 C 228.167969 316.789062 228.175781 317.6875 228.058594 318.589844 C 227.9375 319.496094 227.699219 320.363281 227.335938 321.199219 C 226.976562 322.035156 226.507812 322.804688 225.933594 323.511719 C 225.355469 324.214844 224.695312 324.828125 223.949219 325.347656 C 223.203125 325.867188 222.398438 326.273438 221.539062 326.570312 Z M 221.539062 326.570312 "/>
<path style=" stroke:none;fill-rule:nonzero;fill:rgb(24.308777%,49.01886%,36.859131%);fill-opacity:1;" d="M 526.925781 309.289062 C 529.539062 307.46875 532.023438 305.492188 534.378906 303.347656 C 536.734375 301.207031 538.941406 298.917969 540.996094 296.488281 C 543.054688 294.058594 544.945312 291.503906 546.667969 288.824219 C 548.390625 286.144531 549.933594 283.367188 551.292969 280.488281 C 552.652344 277.605469 553.820312 274.652344 554.796875 271.617188 C 555.773438 268.585938 556.546875 265.503906 557.117188 262.371094 C 557.691406 259.234375 558.058594 256.078125 558.21875 252.894531 C 558.378906 249.714844 558.332031 246.535156 558.074219 243.359375 C 558.027344 242.164062 557.945312 240.96875 557.839844 239.777344 C 557.730469 238.582031 557.59375 237.394531 557.425781 236.207031 C 557.257812 235.019531 557.0625 233.839844 556.839844 232.664062 C 556.613281 231.484375 556.359375 230.316406 556.078125 229.152344 C 555.796875 227.988281 555.488281 226.832031 555.148438 225.683594 C 554.808594 224.53125 554.441406 223.394531 554.046875 222.261719 C 553.652344 221.132812 553.230469 220.011719 552.78125 218.898438 C 552.332031 217.789062 551.855469 216.691406 551.351562 215.605469 C 550.847656 214.519531 550.320312 213.445312 549.761719 212.382812 C 549.207031 211.324219 548.625 210.277344 548.015625 209.242188 C 547.410156 208.210938 546.777344 207.195312 546.121094 206.195312 C 545.464844 205.191406 544.78125 204.207031 544.078125 203.242188 C 543.371094 202.273438 542.640625 201.324219 541.890625 200.390625 C 541.136719 199.460938 540.363281 198.546875 539.566406 197.652344 C 538.769531 196.761719 537.949219 195.886719 537.109375 195.03125 C 536.273438 194.179688 535.410156 193.347656 534.53125 192.535156 C 533.648438 191.722656 532.75 190.933594 531.832031 190.167969 C 530.910156 189.402344 529.972656 188.65625 529.019531 187.9375 C 528.0625 187.214844 527.089844 186.519531 526.101562 185.84375 C 525.109375 185.171875 524.105469 184.523438 523.082031 183.898438 C 522.0625 183.277344 521.023438 182.675781 519.972656 182.105469 C 518.921875 181.53125 517.859375 180.984375 516.78125 180.464844 C 515.703125 179.945312 514.613281 179.449219 513.511719 178.984375 C 512.40625 178.515625 511.296875 178.074219 510.171875 177.664062 C 509.046875 177.25 507.914062 176.867188 506.773438 176.511719 C 505.628906 176.152344 504.480469 175.824219 503.320312 175.523438 C 502.160156 175.226562 500.996094 174.953125 499.824219 174.710938 C 498.652344 174.46875 497.476562 174.253906 496.292969 174.070312 C 495.109375 173.882812 493.925781 173.726562 492.734375 173.601562 C 491.542969 173.472656 490.351562 173.375 489.15625 173.308594 C 487.960938 173.242188 486.765625 173.203125 485.570312 173.191406 C 484.375 173.183594 483.175781 173.203125 481.980469 173.253906 C 480.785156 173.300781 479.589844 173.378906 478.398438 173.488281 C 477.207031 173.597656 476.019531 173.734375 474.832031 173.898438 C 473.648438 174.066406 472.46875 174.261719 471.292969 174.488281 C 470.117188 174.710938 468.949219 174.964844 467.785156 175.246094 C 466.621094 175.527344 465.464844 175.839844 464.316406 176.175781 C 463.171875 176.515625 462.03125 176.882812 460.902344 177.277344 C 459.769531 177.671875 458.652344 178.09375 457.542969 178.542969 C 456.433594 178.992188 455.335938 179.46875 454.25 179.972656 C 453.164062 180.476562 452.089844 181.007812 451.03125 181.5625 C 449.96875 182.117188 448.925781 182.699219 447.894531 183.308594 C 446.863281 183.917969 445.847656 184.546875 444.847656 185.207031 C 443.84375 185.863281 442.863281 186.546875 441.894531 187.25 C 440.929688 187.957031 439.980469 188.6875 439.046875 189.4375 C 438.117188 190.191406 437.203125 190.964844 436.3125 191.765625 C 435.417969 192.5625 434.546875 193.378906 433.691406 194.21875 C 432.839844 195.058594 432.007812 195.921875 431.195312 196.800781 C 430.386719 197.683594 429.597656 198.582031 428.832031 199.503906 C 428.0625 200.421875 427.320312 201.363281 426.597656 202.316406 C 425.878906 203.273438 425.183594 204.246094 424.507812 205.238281 C 423.835938 206.230469 423.1875 207.234375 422.5625 208.257812 C 421.941406 209.28125 421.34375 210.316406 420.769531 211.371094 C 420.199219 212.421875 419.652344 213.488281 419.128906 214.566406 C 418.609375 215.644531 418.117188 216.734375 417.648438 217.839844 C 417.183594 218.941406 416.742188 220.054688 416.332031 221.179688 C 415.917969 222.304688 415.535156 223.4375 415.175781 224.582031 C 414.820312 225.726562 414.492188 226.875 414.191406 228.035156 C 413.890625 229.195312 413.621094 230.363281 413.375 231.535156 C 413.132812 232.707031 412.917969 233.886719 412.734375 235.070312 C 412.550781 236.253906 412.394531 237.441406 412.265625 238.632812 C 412.136719 239.824219 412.039062 241.015625 411.972656 242.210938 C 411.902344 243.410156 411.863281 244.605469 411.855469 245.804688 C 411.84375 247 411.863281 248.199219 411.914062 249.394531 L 411.914062 256.070312 C 413.621094 256.683594 415.308594 257.335938 416.984375 258.03125 C 418.65625 258.726562 420.3125 259.460938 421.949219 260.238281 C 423.589844 261.015625 425.203125 261.832031 426.800781 262.691406 C 428.398438 263.546875 429.972656 264.445312 431.527344 265.378906 C 433.078125 266.316406 434.605469 267.289062 436.109375 268.300781 C 437.617188 269.3125 439.09375 270.359375 440.546875 271.445312 C 442 272.53125 443.421875 273.648438 444.820312 274.804688 C 446.214844 275.960938 447.582031 277.152344 448.921875 278.375 C 450.257812 279.597656 451.566406 280.855469 452.839844 282.140625 C 454.117188 283.429688 455.359375 284.75 456.570312 286.101562 C 457.78125 287.449219 458.957031 288.828125 460.097656 290.238281 C 461.242188 291.644531 462.347656 293.082031 463.417969 294.546875 C 464.488281 296.007812 465.523438 297.496094 466.519531 299.011719 C 467.515625 300.527344 468.476562 302.066406 469.394531 303.628906 C 470.316406 305.191406 471.199219 306.773438 472.042969 308.378906 C 472.882812 309.988281 473.683594 311.613281 474.445312 313.257812 C 475.207031 314.902344 475.929688 316.566406 476.609375 318.25 C 477.289062 319.929688 477.925781 321.628906 478.519531 323.339844 C 479.117188 325.054688 479.667969 326.78125 480.179688 328.523438 C 480.6875 330.261719 481.152344 332.015625 481.578125 333.777344 C 482 335.542969 482.378906 337.316406 482.714844 339.097656 C 483.046875 340.882812 483.339844 342.671875 483.585938 344.46875 C 483.832031 346.265625 484.035156 348.066406 484.191406 349.875 C 484.347656 351.683594 484.460938 353.492188 484.527344 355.304688 C 484.59375 357.117188 484.617188 358.929688 484.59375 360.742188 C 484.570312 362.558594 484.503906 364.371094 484.390625 366.179688 C 484.28125 367.992188 484.121094 369.796875 483.921875 371.601562 C 483.71875 373.402344 483.472656 375.199219 483.183594 376.988281 C 482.890625 378.78125 482.554688 380.5625 482.175781 382.335938 C 481.796875 384.109375 481.375 385.871094 480.910156 387.625 C 480.441406 389.378906 479.933594 391.117188 479.378906 392.84375 C 478.828125 394.574219 478.234375 396.285156 477.59375 397.984375 C 477.019531 399.390625 476.5625 400.835938 476.214844 402.320312 C 475.871094 403.800781 475.644531 405.300781 475.539062 406.820312 C 475.429688 408.335938 475.445312 409.851562 475.578125 411.367188 C 475.710938 412.882812 475.964844 414.378906 476.335938 415.855469 C 476.707031 417.328125 477.195312 418.765625 477.792969 420.164062 C 478.394531 421.5625 479.101562 422.90625 479.914062 424.191406 C 480.726562 425.476562 481.636719 426.6875 482.640625 427.832031 C 483.644531 428.972656 484.734375 430.027344 485.90625 430.992188 C 496.449219 439.113281 506.011719 448.253906 514.59375 458.425781 C 515.917969 460.066406 517.410156 461.539062 519.066406 462.84375 C 520.722656 464.148438 522.503906 465.25 524.410156 466.152344 C 526.316406 467.054688 528.300781 467.734375 530.359375 468.191406 C 532.417969 468.644531 534.5 468.863281 536.609375 468.847656 L 599.183594 468.847656 C 600.25 468.851562 601.316406 468.796875 602.378906 468.683594 C 603.4375 468.566406 604.492188 468.394531 605.53125 468.160156 C 606.574219 467.925781 607.601562 467.636719 608.609375 467.289062 C 609.621094 466.941406 610.605469 466.539062 611.570312 466.078125 C 612.535156 465.621094 613.472656 465.109375 614.378906 464.546875 C 615.285156 463.980469 616.160156 463.367188 616.996094 462.707031 C 617.835938 462.046875 618.632812 461.339844 619.394531 460.589844 C 620.152344 459.835938 620.867188 459.046875 621.539062 458.214844 C 622.210938 457.382812 622.832031 456.515625 623.40625 455.617188 C 623.980469 454.714844 624.503906 453.785156 624.972656 452.824219 C 625.441406 451.863281 625.859375 450.882812 626.21875 449.875 C 626.578125 448.871094 626.878906 447.847656 627.125 446.804688 C 627.371094 445.765625 627.558594 444.714844 627.6875 443.65625 C 627.8125 442.59375 627.882812 441.527344 627.890625 440.460938 C 627.898438 439.390625 627.847656 438.324219 627.738281 437.261719 C 627.625 436.199219 627.457031 435.144531 627.230469 434.101562 C 626.515625 431.011719 625.703125 427.949219 624.796875 424.910156 C 623.886719 421.875 622.878906 418.871094 621.777344 415.898438 C 620.675781 412.925781 619.480469 409.988281 618.191406 407.09375 C 616.902344 404.199219 615.523438 401.347656 614.050781 398.539062 C 612.578125 395.730469 611.015625 392.972656 609.367188 390.265625 C 607.71875 387.558594 605.984375 384.90625 604.167969 382.3125 C 602.347656 379.714844 600.449219 377.179688 598.46875 374.707031 C 596.488281 372.230469 594.429688 369.824219 592.296875 367.480469 C 590.160156 365.136719 587.953125 362.867188 585.671875 360.664062 C 583.390625 358.464844 581.042969 356.339844 578.625 354.289062 C 576.210938 352.242188 573.730469 350.269531 571.1875 348.378906 C 568.644531 346.488281 566.042969 344.679688 563.386719 342.957031 C 560.726562 341.234375 558.015625 339.597656 555.253906 338.046875 C 552.488281 336.496094 549.679688 335.035156 546.820312 333.664062 C 543.964844 332.296875 541.066406 331.019531 538.128906 329.835938 C 535.191406 328.652344 532.21875 327.5625 529.207031 326.570312 C 528.359375 326.269531 527.566406 325.859375 526.832031 325.339844 C 526.09375 324.816406 525.441406 324.207031 524.875 323.507812 C 524.308594 322.804688 523.847656 322.042969 523.488281 321.214844 C 523.132812 320.382812 522.898438 319.523438 522.777344 318.628906 C 522.660156 317.734375 522.664062 316.839844 522.792969 315.949219 C 522.921875 315.054688 523.171875 314.199219 523.535156 313.375 C 523.902344 312.550781 524.371094 311.789062 524.949219 311.097656 C 525.523438 310.402344 526.183594 309.800781 526.925781 309.289062 Z M 526.925781 309.289062 "/>
</g>
</svg>
