<?xml version="1.0" encoding="UTF-8"?>
<svg xmlns="http://www.w3.org/2000/svg" xmlns:xlink="http://www.w3.org/1999/xlink" width="750pt" height="749.999995pt" viewBox="0 0 750 749.999995" version="1.2">
<defs>
<clipPath id="clip1">
  <path d="M 302 246.105469 L 448 246.105469 L 448 392 L 302 392 Z M 302 246.105469 "/>
</clipPath>
<clipPath id="clip2">
  <path d="M 259.457031 386 L 490.207031 386 L 490.207031 504.105469 L 259.457031 504.105469 Z M 259.457031 386 "/>
</clipPath>
</defs>
<g id="surface1">
<g clip-path="url(#clip1)" clip-rule="nonzero">
<path style=" stroke:none;fill-rule:nonzero;fill:rgb(65.098572%,65.098572%,65.098572%);fill-opacity:1;" d="M 447.179688 318.605469 C 447.179688 358.640625 414.789062 391.09375 374.828125 391.09375 C 334.875 391.09375 302.480469 358.640625 302.480469 318.605469 C 302.480469 278.566406 334.875 246.113281 374.828125 246.113281 C 414.789062 246.113281 447.179688 278.566406 447.179688 318.605469 "/>
</g>
<g clip-path="url(#clip2)" clip-rule="nonzero">
<path style=" stroke:none;fill-rule:nonzero;fill:rgb(65.098572%,65.098572%,65.098572%);fill-opacity:1;" d="M 374.828125 504.144531 C 419.875 504.144531 460.652344 496.066406 490.207031 466.527344 C 490.207031 429.332031 455.335938 400.824219 421.65625 386.386719 C 409.59375 398.257812 393.074219 405.582031 374.828125 405.582031 C 356.59375 405.582031 340.066406 398.257812 328.007812 386.386719 C 294.324219 400.824219 259.457031 427.714844 259.457031 466.527344 C 289.003906 496.066406 329.789062 504.144531 374.828125 504.144531 "/>
</g>
</g>
</svg>
